<?xml version="1.0" encoding="UTF-8"?>
<svg width="513px" height="513px" viewBox="0 0 513 513" version="1.1" xmlns="http://www.w3.org/2000/svg" xmlns:xlink="http://www.w3.org/1999/xlink">
    <!-- Generator: Sketch 47.1 (45422) - http://www.bohemiancoding.com/sketch -->
    <title>guardee_blue</title>
    <desc>Created with Sketch.</desc>
    <defs>
        <circle id="path-1" cx="256" cy="256" r="256"></circle>
        <radialGradient cx="24.7377025%" cy="29.6428761%" fx="24.7377025%" fy="29.6428761%" r="78.3309366%" gradientTransform="translate(0.247377,0.296429),scale(0.891470,1.000000),translate(-0.247377,-0.296429)" id="radialGradient-3">
            <stop stop-color="#FFFFFF" offset="0%"></stop>
            <stop stop-color="#FBC8B4" offset="6.04%"></stop>
            <stop stop-color="#FBC3B0" offset="7.12%"></stop>
            <stop stop-color="#F7978B" offset="18.29%"></stop>
            <stop stop-color="#F4716B" offset="29.95%"></stop>
            <stop stop-color="#F15251" offset="41.99%"></stop>
            <stop stop-color="#EF3A3D" offset="54.53%"></stop>
            <stop stop-color="#EE292F" offset="67.78%"></stop>
            <stop stop-color="#ED1F27" offset="82.2%"></stop>
            <stop stop-color="#ED1C24" offset="100%"></stop>
        </radialGradient>
        <filter x="-4.9%" y="-3.4%" width="109.9%" height="106.8%" filterUnits="objectBoundingBox" id="filter-4">
            <feOffset dx="0" dy="0" in="SourceAlpha" result="shadowOffsetOuter1"></feOffset>
            <feGaussianBlur stdDeviation="5" in="shadowOffsetOuter1" result="shadowBlurOuter1"></feGaussianBlur>
            <feColorMatrix values="0 0 0 0 0   0 0 0 0 0   0 0 0 0 0  0 0 0 0.5 0" type="matrix" in="shadowBlurOuter1" result="shadowMatrixOuter1"></feColorMatrix>
            <feMerge>
                <feMergeNode in="shadowMatrixOuter1"></feMergeNode>
                <feMergeNode in="SourceGraphic"></feMergeNode>
            </feMerge>
        </filter>
    </defs>
    <g id="Page-1" stroke="none" stroke-width="1" fill="none" fill-rule="evenodd">
        <g id="guardee_blue" transform="translate(0.683594, 0.417969)">
            <g id="Group-2">
                <mask id="mask-2" fill="white">
                    <use xlink:href="#path-1"></use>
                </mask>
                <use id="Mask" fill="#32ACFF" fill-rule="nonzero" xlink:href="#path-1"></use>
                <g id="duke" mask="url(#mask-2)">
                    <g transform="translate(169.788531, 56.654587)">
                        <path d="M37.2521959,33.1799886 C43.6750146,46.6294807 39.3382396,140.556342 31.8175032,173.493874 C24.2967668,206.486302 16.7760304,248.426759 15.019362,283.724814 C14.2508196,298.766286 16.5564468,304.695042 26.3828105,304.695042 C43.7299105,304.695042 65.7431609,268.134382 93.3557917,268.95782 C121.023318,269.781259 129.80666,310.898277 142.762089,310.623798 C155.717519,310.349318 166.147737,305.847856 166.257529,265.828755 C166.6418,146.374544 66.5117033,49.5382003 37.2521959,33.1799886 L37.2521959,33.1799886 L37.2521959,33.1799886 L37.2521959,33.1799886 Z" id="Shape" fill="#000000" fill-rule="nonzero"></path>
                        <path d="M124.097488,128.643935 C130.190931,138.909466 145.726467,131.004458 146.385218,119.421426 C147.043969,107.838394 145.342196,93.2360882 137.82146,92.6871293 C130.300723,92.1381705 124.920926,84.6174341 117.40019,84.0684752 C109.879454,83.5195163 101.809758,91.0402528 98.2964215,81.0492015 C94.7830848,71.0581501 107.738514,66.8311669 117.40019,65.2391862 C108.781536,56.6205321 103.731114,47.0686478 99.9432981,37.1324924 C96.1554819,27.196337 93.3557917,18.0836199 103.950698,14.1860119 C114.545604,10.288404 113.66727,30.3254025 125.799261,39.4930155 C122.231028,25.9886275 120.913527,20.3892471 121.188006,12.5391354 C121.462486,4.68902362 120.913527,-1.29462799 132.057392,0.242456831 C143.201256,1.77954165 138.370418,24.9456057 147.043969,34.3876981 C149.678971,25.4396686 151.270952,14.0762202 157.638875,9.41006984 C164.006797,4.74391951 178.499311,4.63412773 169.276802,23.7927921 C160.054294,42.9514564 171.966701,53.3267789 169.167011,68.4231476 C166.367321,83.5195163 157.69377,80.774722 153.96085,90.4912939 C150.22793,100.207866 156.156686,122.330908 149.130012,132.267063 C142.103339,142.203219 140.840733,157.464275 145.397092,169.651162 C131.398641,156.585941 124.097488,128.643935 124.097488,128.643935 L124.097488,128.643935 L124.097488,128.643935 L124.097488,128.643935 Z" id="Shape" fill="#000000" fill-rule="nonzero"></path>
                        <path d="M36.8679247,141.544468 C31.2136485,180.300964 11.5609212,184.912218 10.5727952,200.996713 C9.58466926,217.081208 15.7879044,218.618292 15.4036332,233.495078 C15.019362,248.371863 1.7894534,254.41041 0.197472702,262.480106 C-1.394508,270.549801 7.0045626,273.129908 11.8902965,273.129908 C16.7760304,273.129908 21.6617642,251.720512 23.6380161,238.106332 C25.6142681,224.492152 17.1603016,216.477353 17.1603016,207.145052 C17.1603016,197.812752 29.4020842,180.740131 27.1513529,195.726708 C37.3070918,179.697109 42.1386923,159.275077 36.8679247,141.544468 L36.8679247,141.544468 L36.8679247,141.544468 L36.8679247,141.544468 Z" id="Shape" fill="#000000" fill-rule="nonzero"></path>
                        <path d="M44.4443195,156.310699 C40.1624404,177.280928 13.4281437,294.373853 27.0423235,295.856042 C40.6565033,297.338231 60.0347512,259.624757 91.7645735,259.899237 C123.549292,260.173716 136.065554,302.169069 143.805874,301.89459 C151.546194,301.62011 156.651511,304.639384 157.474949,257.31913 C158.298388,209.998876 129.423151,149.558505 112.350531,122.934 C89.1837044,124.416189 64.260972,142.971761 44.4443195,156.310699 L44.4443195,156.310699 L44.4443195,156.310699 L44.4443195,156.310699 Z" id="Shape" fill="#FFFFFF" fill-rule="evenodd"></path>
                        <g id="Group" stroke-width="1" fill="none" fill-rule="evenodd" transform="translate(46.509015, 106.742001)">
                            <path d="M59.5940592,24.5361738 C58.1072956,10.6208291 45.0161516,5.15411377 32.4045842,6.87189754 C21.8150153,8.31520189 7.69914805,17.2510323 6.39994541,28.7082612 C4.93529267,41.621756 15.093319,53.5044281 28.0235875,54.0236517 C39.4831038,54.4841671 51.7935063,48.9396826 56.9430454,38.1724645 C59.0245144,33.8234904 59.8380409,29.344901 59.5940592,24.5361738" id="Shape"></path>
                            <path d="M65.6326067,24.0421109 C64.3654267,10.9319058 54.6480924,2.70285996 42.0769344,0.690773236 C29.9357942,-1.25269363 16.7180847,4.50146268 8.21837164,13.0011757 C-1.341137,22.5606844 -1.72312088,35.8576879 4.97036504,47.1837767 C11.5738827,58.3589018 26.2021115,62.052175 38.1846636,59.2570595 C54.5817598,55.4334085 66.6985018,41.0926207 65.6326067,24.0421109" id="Shape" fill="#000000" fill-rule="nonzero"></path>
                            <path d="M59.5940592,28.9278447 C58.455732,40.8425394 48.9602686,50.4150096 37.5259129,53.1918265 C25.4259447,56.1302813 12.0656583,51.4709929 7.71744668,39.0286878 C5.49721306,32.6760139 5.91045709,26.1594147 9.72800852,20.5790954 C12.9478047,15.8740605 18.1400406,12.1922239 23.2834802,9.85457403 C33.8997347,5.03136047 49.0784472,4.49536313 56.4733806,15.2503822 C59.2753581,19.3264017 59.7656089,24.1244547 59.5940592,28.9278447" id="Shape" stroke="#000000" fill="url(#radialGradient-3)" fill-rule="nonzero"></path>
                        </g>
                    </g>
                </g>
                <g filter="url(#filter-4)" mask="url(#mask-2)">
                    <g transform="translate(104.000000, 282.000000)">
                        <polygon id="Combined-Shape" fill="#F5F5F5" fill-rule="nonzero" points="32 84 32 284.608 0 324 152 324 304 324 272 284.608 272 84"></polygon>
                        <rect id="Rectangle-path" fill="#B3B3B3" fill-rule="nonzero" x="32" y="32" width="240" height="28"></rect>
                        <rect id="Rectangle-path" fill="#E6E6E6" fill-rule="nonzero" x="32" y="84" width="240" height="4"></rect>
                        <g id="Group" stroke-width="1" fill="none" fill-rule="evenodd" transform="translate(0.000000, 60.000000)">
                            <polygon id="Shape" fill="#B3B3B3" fill-rule="nonzero" points="272 24 32 24 0 0 304 0"></polygon>
                        </g>
                        <polygon id="Shape" fill="#A6A6A6" fill-rule="nonzero" points="288 60 256 84 272 84 304 60"></polygon>
                        <rect id="Rectangle-path" fill="#E6E6E6" fill-rule="nonzero" x="256" y="84" width="16" height="200"></rect>
                        <path d="M304,60 L304,20 C304,4 300,0 284,0 L260,0 C257.8,0 256,1.8 256,4 L256,44 C256,46.2 254.2,48 252,48 L228,48 C225.8,48 224,46.2 224,44 L224,4 C224,1.8 222.2,0 220,0 L180,0 C177.8,0 176,1.8 176,4 L176,44 C176,46.2 174.2,48 172,48 L132,48 C129.8,48 128,46.2 128,44 L128,4 C128,1.8 126.2,0 124,0 L84,0 C81.8,0 80,1.8 80,4 L80,44 C80,46.2 78.2,48 76,48 L52,48 C49.8,48 48,46.2 48,44 L48,4 C48,1.8 46.2,0 44,0 L20,0 C4,0 0,4 0,20 L0,60 L304,60 Z" id="Shape" fill="#F5F5F5" fill-rule="nonzero"></path>
                        <g id="Group" stroke-width="1" fill="none" fill-rule="evenodd" transform="translate(0.000000, 8.000000)">
                            <path d="M72,92 C72,94.2 70.2,96 68,96 L52,96 C49.8,96 48,94.2 48,92 L48,92 C48,89.8 49.8,88 52,88 L68,88 C70.2,88 72,89.8 72,92 L72,92 Z" id="Shape" fill="#CCCCCC" fill-rule="nonzero"></path>
                            <path d="M96,116 C96,118.2 94.2,120 92,120 L76,120 C73.8,120 72,118.2 72,116 L72,116 C72,113.8 73.8,112 76,112 L92,112 C94.2,112 96,113.8 96,116 L96,116 Z" id="Shape" fill="#CCCCCC" fill-rule="nonzero"></path>
                            <path d="M84,152 C84,154.2 82.2,156 80,156 L64,156 C61.8,156 60,154.2 60,152 L60,152 C60,149.8 61.8,148 64,148 L80,148 C82.2,148 84,149.8 84,152 L84,152 Z" id="Shape" fill="#CCCCCC" fill-rule="nonzero"></path>
                            <path d="M72,132 C72,134.2 70.2,136 68,136 L52,136 C49.8,136 48,134.2 48,132 L48,132 C48,129.8 49.8,128 52,128 L68,128 C70.2,128 72,129.8 72,132 L72,132 Z" id="Shape" fill="#CCCCCC" fill-rule="nonzero"></path>
                            <path d="M200,152 C200,154.2 201.8,156 204,156 L220,156 C222.2,156 224,154.2 224,152 L224,152 C224,149.8 222.2,148 220,148 L204,148 C201.8,148 200,149.8 200,152 L200,152 Z" id="Shape" fill="#CCCCCC" fill-rule="nonzero"></path>
                            <path d="M212,132 C212,134.2 213.8,136 216,136 L232,136 C234.2,136 236,134.2 236,132 L236,132 C236,129.8 234.2,128 232,128 L216,128 C213.8,128 212,129.8 212,132 L212,132 Z" id="Shape" fill="#CCCCCC" fill-rule="nonzero"></path>
                            <path d="M180,8 C180,10.2 181.8,12 184,12 L200,12 C202.2,12 204,10.2 204,8 L204,8 C204,5.8 202.2,4 200,4 L184,4 C181.8,4 180,5.8 180,8 L180,8 Z" id="Shape" fill="#CCCCCC" fill-rule="nonzero"></path>
                            <path d="M192,28 C192,30.2 193.8,32 196,32 L212,32 C214.2,32 216,30.2 216,28 L216,28 C216,25.8 214.2,24 212,24 L196,24 C193.8,24 192,25.8 192,28 L192,28 Z" id="Shape" fill="#CCCCCC" fill-rule="nonzero"></path>
                            <path d="M212,188 C212,190.2 213.8,192 216,192 L232,192 C234.2,192 236,190.2 236,188 L236,188 C236,185.8 234.2,184 232,184 L216,184 C213.8,184 212,185.8 212,188 L212,188 Z" id="Shape" fill="#CCCCCC" fill-rule="nonzero"></path>
                            <path d="M224,168 C224,170.2 225.8,172 228,172 L244,172 C246.2,172 248,170.2 248,168 L248,168 C248,165.8 246.2,164 244,164 L228,164 C225.8,164 224,165.8 224,168 L224,168 Z" id="Shape" fill="#CCCCCC" fill-rule="nonzero"></path>
                            <path d="M200,96 C200,98.2 198.2,100 196,100 L180,100 C177.8,100 176,98.2 176,96 L176,96 C176,93.8 177.8,92 180,92 L196,92 C198.2,92 200,93.8 200,96 L200,96 Z" id="Shape" fill="#CCCCCC" fill-rule="nonzero"></path>
                            <path d="M236,216 C236,218.2 234.2,220 232,220 L216,220 C213.8,220 212,218.2 212,216 L212,216 C212,213.8 213.8,212 216,212 L232,212 C234.2,212 236,213.8 236,216 L236,216 Z" id="Shape" fill="#CCCCCC" fill-rule="nonzero"></path>
                            <path d="M0,8 L12,8 C14.2,8 16,9.8 16,12 L16,12 C16,14.2 14.2,16 12,16 L0,16 L0,8 Z" id="Shape" fill="#CCCCCC" fill-rule="nonzero"></path>
                            <path d="M80,28 L92,28 C94.2,28 96,29.8 96,32 L96,32 C96,34.2 94.2,36 92,36 L80,36 L80,28 Z" id="Shape" fill="#CCCCCC" fill-rule="nonzero"></path>
                            <path d="M256,0 L268,0 C270.2,0 272,1.8 272,4 L272,4 C272,6.2 270.2,8 268,8 L256,8 L256,0 Z" id="Shape" fill="#CCCCCC" fill-rule="nonzero"></path>
                        </g>
                        <g id="Group" stroke-width="1" fill="none" fill-rule="evenodd" transform="translate(80.000000, 192.000000)">
                            <path d="M160,20 C160,22.2 158.2,24 156,24 L140,24 C137.8,24 136,22.2 136,20 L136,20 C136,17.8 137.8,16 140,16 L156,16 C158.2,16 160,17.8 160,20 L160,20 Z" id="Shape" fill="#CCCCCC" fill-rule="nonzero"></path>
                            <path d="M0,4 C0,6.2 1.8,8 4,8 L20,8 C22.2,8 24,6.2 24,4 L24,4 C24,1.8 22.2,0 20,0 L4,0 C1.8,0 0,1.8 0,4 L0,4 Z" id="Shape" fill="#CCCCCC" fill-rule="nonzero"></path>
                            <path d="M28,20 C28,22.2 26.2,24 24,24 L8,24 C5.8,24 4,22.2 4,20 L4,20 C4,17.8 5.8,16 8,16 L24,16 C26.2,16 28,17.8 28,20 L28,20 Z" id="Shape" fill="#CCCCCC" fill-rule="nonzero"></path>
                        </g>
                    </g>
                </g>
            </g>
        </g>
    </g>
</svg>